<mxfile host="app.diagrams.net" agent="Mozilla/5.0 (Windows NT 10.0; Win64; x64) AppleWebKit/537.36 (KHTML, like Gecko) Chrome/131.0.0.0 Safari/537.36 Edg/131.0.0.0" version="26.0.4">
  <diagram name="第 1 页" id="gjINg1IJyNRDuI-0agfB">
    <mxGraphModel dx="826" dy="456" grid="0" gridSize="10" guides="1" tooltips="1" connect="1" arrows="1" fold="1" page="1" pageScale="1" pageWidth="827" pageHeight="1169" math="0" shadow="0">
      <root>
        <mxCell id="0" />
        <mxCell id="1" parent="0" />
        <mxCell id="4MZeoHrBGx3ADns-Izul-1" value="U/Pb元素比值" style="rounded=1;whiteSpace=wrap;html=1;" vertex="1" parent="1">
          <mxGeometry x="163" y="107" width="87" height="17" as="geometry" />
        </mxCell>
        <mxCell id="4MZeoHrBGx3ADns-Izul-6" value="原始地幔" style="ellipse;whiteSpace=wrap;html=1;" vertex="1" parent="1">
          <mxGeometry x="238.5" y="68" width="73" height="34" as="geometry" />
        </mxCell>
        <mxCell id="4MZeoHrBGx3ADns-Izul-7" value="" style="endArrow=classic;html=1;rounded=0;exitX=1;exitY=0.5;exitDx=0;exitDy=0;entryX=0.157;entryY=0.508;entryDx=0;entryDy=0;entryPerimeter=0;" edge="1" parent="1" source="4MZeoHrBGx3ADns-Izul-1">
          <mxGeometry width="50" height="50" relative="1" as="geometry">
            <mxPoint x="235.99" y="83" as="sourcePoint" />
            <mxPoint x="274.66208000000006" y="116.61783999999989" as="targetPoint" />
          </mxGeometry>
        </mxCell>
        <mxCell id="4MZeoHrBGx3ADns-Izul-9" value="HUMI" style="ellipse;whiteSpace=wrap;html=1;" vertex="1" parent="1">
          <mxGeometry x="170.5" y="150" width="73" height="34" as="geometry" />
        </mxCell>
        <mxCell id="4MZeoHrBGx3ADns-Izul-10" value="其它" style="ellipse;whiteSpace=wrap;html=1;" vertex="1" parent="1">
          <mxGeometry x="305.25" y="150" width="73" height="34" as="geometry" />
        </mxCell>
        <mxCell id="4MZeoHrBGx3ADns-Izul-11" value="La/Yb元素比值" style="rounded=1;whiteSpace=wrap;html=1;" vertex="1" parent="1">
          <mxGeometry x="182" y="189" width="87" height="17" as="geometry" />
        </mxCell>
        <mxCell id="4MZeoHrBGx3ADns-Izul-13" value="" style="endArrow=classic;html=1;rounded=0;exitX=0;exitY=0.5;exitDx=0;exitDy=0;exitPerimeter=0;" edge="1" parent="1" source="4MZeoHrBGx3ADns-Izul-23">
          <mxGeometry width="50" height="50" relative="1" as="geometry">
            <mxPoint x="376.49" y="356" as="sourcePoint" />
            <mxPoint x="342" y="210" as="targetPoint" />
          </mxGeometry>
        </mxCell>
        <mxCell id="4MZeoHrBGx3ADns-Izul-16" value="高" style="text;html=1;align=center;verticalAlign=middle;resizable=0;points=[];autosize=1;strokeColor=none;fillColor=none;" vertex="1" parent="1">
          <mxGeometry x="201" y="128" width="30" height="26" as="geometry" />
        </mxCell>
        <mxCell id="4MZeoHrBGx3ADns-Izul-17" value="低" style="text;html=1;align=center;verticalAlign=middle;resizable=0;points=[];autosize=1;strokeColor=none;fillColor=none;" vertex="1" parent="1">
          <mxGeometry x="319" y="128" width="30" height="26" as="geometry" />
        </mxCell>
        <mxCell id="4MZeoHrBGx3ADns-Izul-18" value="&#xa;&lt;span style=&quot;color: rgba(0, 0, 0, 0); font-family: monospace; font-size: 0px; font-style: normal; font-variant-ligatures: normal; font-variant-caps: normal; font-weight: 400; letter-spacing: normal; orphans: 2; text-align: start; text-indent: 0px; text-transform: none; widows: 2; word-spacing: 0px; -webkit-text-stroke-width: 0px; white-space: nowrap; background-color: rgb(251, 251, 251); text-decoration-thickness: initial; text-decoration-style: initial; text-decoration-color: initial; display: inline !important; float: none;&quot;&gt;&amp;nbsp;&lt;/span&gt;&#xa;&#xa;" style="strokeWidth=1;html=1;shape=mxgraph.flowchart.annotation_1;align=left;pointerEvents=1;rotation=90;" vertex="1" parent="1">
          <mxGeometry x="334.19" y="176.19" width="15.11" height="126.5" as="geometry" />
        </mxCell>
        <mxCell id="4MZeoHrBGx3ADns-Izul-19" value="" style="strokeWidth=1;html=1;shape=mxgraph.flowchart.annotation_1;align=left;pointerEvents=1;rotation=90;" vertex="1" parent="1">
          <mxGeometry x="267" y="75" width="16" height="134" as="geometry" />
        </mxCell>
        <mxCell id="4MZeoHrBGx3ADns-Izul-20" value="&#xa;&lt;span style=&quot;color: rgba(0, 0, 0, 0); font-family: monospace; font-size: 0px; font-style: normal; font-variant-ligatures: normal; font-variant-caps: normal; font-weight: 400; letter-spacing: normal; orphans: 2; text-align: start; text-indent: 0px; text-transform: none; widows: 2; word-spacing: 0px; -webkit-text-stroke-width: 0px; white-space: nowrap; background-color: rgb(251, 251, 251); text-decoration-thickness: initial; text-decoration-style: initial; text-decoration-color: initial; display: inline !important; float: none;&quot;&gt;&amp;nbsp;&lt;/span&gt;&#xa;&#xa;" style="endArrow=none;html=1;rounded=0;entryX=0.5;entryY=1;entryDx=0;entryDy=0;exitX=0;exitY=0.5;exitDx=0;exitDy=0;exitPerimeter=0;" edge="1" parent="1" source="4MZeoHrBGx3ADns-Izul-19" target="4MZeoHrBGx3ADns-Izul-6">
          <mxGeometry width="50" height="50" relative="1" as="geometry">
            <mxPoint x="377" y="295" as="sourcePoint" />
            <mxPoint x="427" y="245" as="targetPoint" />
          </mxGeometry>
        </mxCell>
        <mxCell id="4MZeoHrBGx3ADns-Izul-21" value="" style="endArrow=none;html=1;rounded=0;entryX=0.5;entryY=1;entryDx=0;entryDy=0;exitX=0;exitY=0.5;exitDx=0;exitDy=0;exitPerimeter=0;" edge="1" parent="1" source="4MZeoHrBGx3ADns-Izul-18" target="4MZeoHrBGx3ADns-Izul-10">
          <mxGeometry width="50" height="50" relative="1" as="geometry">
            <mxPoint x="377" y="295" as="sourcePoint" />
            <mxPoint x="427" y="245" as="targetPoint" />
          </mxGeometry>
        </mxCell>
        <mxCell id="4MZeoHrBGx3ADns-Izul-22" value="Hf同位素比值" style="rounded=1;whiteSpace=wrap;html=1;" vertex="1" parent="1">
          <mxGeometry x="182" y="213" width="87" height="17" as="geometry" />
        </mxCell>
        <mxCell id="4MZeoHrBGx3ADns-Izul-23" value="&#xa;&lt;span style=&quot;color: rgba(0, 0, 0, 0); font-family: monospace; font-size: 0px; font-style: normal; font-variant-ligatures: normal; font-variant-caps: normal; font-weight: 400; letter-spacing: normal; orphans: 2; text-align: start; text-indent: 0px; text-transform: none; widows: 2; word-spacing: 0px; -webkit-text-stroke-width: 0px; white-space: nowrap; background-color: rgb(251, 251, 251); text-decoration-thickness: initial; text-decoration-style: initial; text-decoration-color: initial; display: inline !important; float: none;&quot;&gt;&amp;nbsp;&lt;/span&gt;&#xa;&#xa;" style="strokeWidth=1;html=1;shape=mxgraph.flowchart.annotation_1;align=left;pointerEvents=1;rotation=-180;" vertex="1" parent="1">
          <mxGeometry x="269" y="198" width="9" height="24" as="geometry" />
        </mxCell>
        <mxCell id="4MZeoHrBGx3ADns-Izul-24" value="EM" style="ellipse;whiteSpace=wrap;html=1;" vertex="1" parent="1">
          <mxGeometry x="243" y="247" width="73" height="34" as="geometry" />
        </mxCell>
        <mxCell id="4MZeoHrBGx3ADns-Izul-25" value="DMM" style="ellipse;whiteSpace=wrap;html=1;" vertex="1" parent="1">
          <mxGeometry x="367" y="247" width="73" height="34" as="geometry" />
        </mxCell>
        <mxCell id="4MZeoHrBGx3ADns-Izul-26" value="&#xa;&lt;span style=&quot;color: rgba(0, 0, 0, 0); font-family: monospace; font-size: 0px; font-style: normal; font-variant-ligatures: normal; font-variant-caps: normal; font-weight: 400; letter-spacing: normal; orphans: 2; text-align: start; text-indent: 0px; text-transform: none; widows: 2; word-spacing: 0px; -webkit-text-stroke-width: 0px; white-space: nowrap; background-color: rgb(251, 251, 251); text-decoration-thickness: initial; text-decoration-style: initial; text-decoration-color: initial; display: inline !important; float: none;&quot;&gt;&amp;nbsp;&lt;/span&gt;&#xa;&#xa;" style="strokeWidth=1;html=1;shape=mxgraph.flowchart.annotation_1;align=left;pointerEvents=1;rotation=90;" vertex="1" parent="1">
          <mxGeometry x="273.66" y="257" width="11.44" height="135.75" as="geometry" />
        </mxCell>
        <mxCell id="4MZeoHrBGx3ADns-Izul-27" value="" style="endArrow=none;html=1;rounded=0;entryX=0.5;entryY=1;entryDx=0;entryDy=0;exitX=0;exitY=0.5;exitDx=0;exitDy=0;exitPerimeter=0;" edge="1" parent="1" source="4MZeoHrBGx3ADns-Izul-26" target="4MZeoHrBGx3ADns-Izul-24">
          <mxGeometry width="50" height="50" relative="1" as="geometry">
            <mxPoint x="377" y="296" as="sourcePoint" />
            <mxPoint x="427" y="246" as="targetPoint" />
          </mxGeometry>
        </mxCell>
        <mxCell id="4MZeoHrBGx3ADns-Izul-28" value="Sr/Nd同位素比值" style="rounded=1;whiteSpace=wrap;html=1;" vertex="1" parent="1">
          <mxGeometry x="159" y="290" width="96" height="17" as="geometry" />
        </mxCell>
        <mxCell id="4MZeoHrBGx3ADns-Izul-29" value="&#xa;&lt;span style=&quot;color: rgba(0, 0, 0, 0); font-family: monospace; font-size: 0px; font-style: normal; font-variant-ligatures: normal; font-variant-caps: normal; font-weight: 400; letter-spacing: normal; orphans: 2; text-align: start; text-indent: 0px; text-transform: none; widows: 2; word-spacing: 0px; -webkit-text-stroke-width: 0px; white-space: nowrap; background-color: rgb(251, 251, 251); text-decoration-thickness: initial; text-decoration-style: initial; text-decoration-color: initial; display: inline !important; float: none;&quot;&gt;&amp;nbsp;&lt;/span&gt;&#xa;&#xa;" style="endArrow=classic;html=1;rounded=0;exitX=1;exitY=0.5;exitDx=0;exitDy=0;entryX=0.157;entryY=0.508;entryDx=0;entryDy=0;entryPerimeter=0;" edge="1" parent="1">
          <mxGeometry width="50" height="50" relative="1" as="geometry">
            <mxPoint x="256" y="298" as="sourcePoint" />
            <mxPoint x="280.66208000000006" y="298.6178399999999" as="targetPoint" />
          </mxGeometry>
        </mxCell>
        <mxCell id="4MZeoHrBGx3ADns-Izul-30" value="&#xa;&lt;span style=&quot;color: rgba(0, 0, 0, 0); font-family: monospace; font-size: 0px; font-style: normal; font-variant-ligatures: normal; font-variant-caps: normal; font-weight: 400; letter-spacing: normal; orphans: 2; text-align: start; text-indent: 0px; text-transform: none; widows: 2; word-spacing: 0px; -webkit-text-stroke-width: 0px; white-space: nowrap; background-color: rgb(251, 251, 251); text-decoration-thickness: initial; text-decoration-style: initial; text-decoration-color: initial; display: inline !important; float: none;&quot;&gt;&amp;nbsp;&lt;/span&gt;&#xa;&#xa;" style="endArrow=classic;html=1;rounded=0;exitX=0;exitY=0.5;exitDx=0;exitDy=0;" edge="1" parent="1" source="4MZeoHrBGx3ADns-Izul-31">
          <mxGeometry width="50" height="50" relative="1" as="geometry">
            <mxPoint x="261.78" y="340" as="sourcePoint" />
            <mxPoint x="278" y="299" as="targetPoint" />
          </mxGeometry>
        </mxCell>
        <mxCell id="4MZeoHrBGx3ADns-Izul-31" value="Pb同位素比值" style="rounded=1;whiteSpace=wrap;html=1;" vertex="1" parent="1">
          <mxGeometry x="301" y="290" width="87" height="17" as="geometry" />
        </mxCell>
        <mxCell id="4MZeoHrBGx3ADns-Izul-32" value="EM1" style="ellipse;whiteSpace=wrap;html=1;" vertex="1" parent="1">
          <mxGeometry x="174.75" y="330" width="73" height="34" as="geometry" />
        </mxCell>
        <mxCell id="4MZeoHrBGx3ADns-Izul-33" value="EM2" style="ellipse;whiteSpace=wrap;html=1;" vertex="1" parent="1">
          <mxGeometry x="311.25" y="330" width="73" height="34" as="geometry" />
        </mxCell>
      </root>
    </mxGraphModel>
  </diagram>
</mxfile>
